<svg width="562" height="454" viewBox="0 0 562 454" fill="none" xmlns="http://www.w3.org/2000/svg">
<path d="M7.854 86.176C7.458 86.176 7.128 86.088 6.864 85.912C6.61467 85.7213 6.40933 85.4427 6.248 85.076L0.506 72.184C0.344667 71.8173 0.300667 71.4947 0.374 71.216C0.447333 70.9373 0.601333 70.7173 0.836 70.556C1.07067 70.3947 1.34933 70.314 1.672 70.314C2.09733 70.314 2.41267 70.4093 2.618 70.6C2.838 70.776 3.02133 71.0473 3.168 71.414L8.382 83.492H7.436L12.628 71.392C12.7893 71.04 12.98 70.776 13.2 70.6C13.42 70.4093 13.728 70.314 14.124 70.314C14.4467 70.314 14.7107 70.3947 14.916 70.556C15.136 70.7173 15.2753 70.9373 15.334 71.216C15.3927 71.4947 15.3413 71.8173 15.18 72.184L9.438 85.076C9.27667 85.4427 9.07133 85.7213 8.822 85.912C8.58733 86.088 8.26467 86.176 7.854 86.176ZM20.6446 86.22C19.5299 86.22 18.5619 85.9927 17.7406 85.538C16.9193 85.0833 16.2813 84.438 15.8266 83.602C15.3719 82.7513 15.1446 81.754 15.1446 80.61C15.1446 79.7447 15.2693 78.9747 15.5186 78.3C15.7826 77.6107 16.1566 77.024 16.6406 76.54C17.1246 76.0413 17.7039 75.6673 18.3786 75.418C19.0533 75.154 19.8086 75.022 20.6446 75.022C21.7593 75.022 22.7273 75.2493 23.5486 75.704C24.3699 76.1587 25.0079 76.804 25.4626 77.64C25.9173 78.476 26.1446 79.466 26.1446 80.61C26.1446 81.4753 26.0126 82.2527 25.7486 82.942C25.4993 83.6313 25.1326 84.2253 24.6486 84.724C24.1646 85.208 23.5853 85.582 22.9106 85.846C22.2359 86.0953 21.4806 86.22 20.6446 86.22ZM20.6446 84.13C21.1873 84.13 21.6639 83.998 22.0746 83.734C22.4853 83.47 22.8006 83.0813 23.0206 82.568C23.2553 82.04 23.3726 81.3873 23.3726 80.61C23.3726 79.4367 23.1233 78.564 22.6246 77.992C22.1259 77.4053 21.4659 77.112 20.6446 77.112C20.1019 77.112 19.6253 77.244 19.2146 77.508C18.8039 77.7573 18.4813 78.146 18.2466 78.674C18.0266 79.1873 17.9166 79.8327 17.9166 80.61C17.9166 81.7687 18.1659 82.6487 18.6646 83.25C19.1633 83.8367 19.8233 84.13 20.6446 84.13ZM33.3864 86.22C32.257 86.22 31.2744 85.9927 30.4384 85.538C29.6024 85.0687 28.957 84.4087 28.5024 83.558C28.0477 82.7073 27.8204 81.71 27.8204 80.566C27.8204 79.7007 27.945 78.9307 28.1944 78.256C28.4584 77.5667 28.8324 76.9873 29.3164 76.518C29.8004 76.034 30.387 75.6673 31.0764 75.418C31.7657 75.154 32.5357 75.022 33.3864 75.022C33.8704 75.022 34.391 75.088 34.9484 75.22C35.5204 75.352 36.0557 75.572 36.5544 75.88C36.789 76.0267 36.943 76.2027 37.0164 76.408C37.0897 76.6133 37.1044 76.826 37.0604 77.046C37.0164 77.2513 36.921 77.4347 36.7744 77.596C36.6424 77.7427 36.4737 77.838 36.2684 77.882C36.063 77.9113 35.8357 77.86 35.5864 77.728C35.2637 77.5373 34.9337 77.398 34.5964 77.31C34.259 77.2073 33.9364 77.156 33.6284 77.156C33.1444 77.156 32.719 77.2367 32.3524 77.398C31.9857 77.5447 31.6704 77.7647 31.4064 78.058C31.157 78.3367 30.9664 78.6887 30.8344 79.114C30.7024 79.5393 30.6364 80.0307 30.6364 80.588C30.6364 81.6733 30.893 82.5313 31.4064 83.162C31.9344 83.778 32.675 84.086 33.6284 84.086C33.9364 84.086 34.2517 84.042 34.5744 83.954C34.9117 83.866 35.249 83.7267 35.5864 83.536C35.8357 83.404 36.0557 83.36 36.2464 83.404C36.4517 83.448 36.6204 83.5507 36.7524 83.712C36.8844 83.8587 36.965 84.042 36.9944 84.262C37.0237 84.4673 36.9944 84.6727 36.9064 84.878C36.833 85.0833 36.6864 85.252 36.4664 85.384C35.9824 85.6773 35.469 85.89 34.9264 86.022C34.3837 86.154 33.8704 86.22 33.3864 86.22ZM43.8785 86.22C42.6612 86.22 41.6125 85.9927 40.7325 85.538C39.8525 85.0833 39.1705 84.438 38.6865 83.602C38.2172 82.766 37.9825 81.776 37.9825 80.632C37.9825 79.5173 38.2098 78.542 38.6645 77.706C39.1338 76.87 39.7718 76.2173 40.5785 75.748C41.3998 75.264 42.3312 75.022 43.3725 75.022C44.1352 75.022 44.8172 75.1467 45.4185 75.396C46.0345 75.6453 46.5552 76.0047 46.9805 76.474C47.4205 76.9433 47.7505 77.5153 47.9705 78.19C48.2052 78.85 48.3225 79.598 48.3225 80.434C48.3225 80.698 48.2272 80.9033 48.0365 81.05C47.8605 81.182 47.6038 81.248 47.2665 81.248H40.2045V79.664H46.3865L46.0345 79.994C46.0345 79.3193 45.9318 78.7547 45.7265 78.3C45.5358 77.8453 45.2498 77.5007 44.8685 77.266C44.5018 77.0167 44.0398 76.892 43.4825 76.892C42.8665 76.892 42.3385 77.0387 41.8985 77.332C41.4732 77.6107 41.1432 78.014 40.9085 78.542C40.6885 79.0553 40.5785 79.6713 40.5785 80.39V80.544C40.5785 81.7467 40.8572 82.6487 41.4145 83.25C41.9865 83.8367 42.8225 84.13 43.9225 84.13C44.3038 84.13 44.7292 84.086 45.1985 83.998C45.6825 83.8953 46.1372 83.7267 46.5625 83.492C46.8705 83.316 47.1418 83.2427 47.3765 83.272C47.6112 83.2867 47.7945 83.3673 47.9265 83.514C48.0732 83.6607 48.1612 83.844 48.1905 84.064C48.2198 84.2693 48.1758 84.482 48.0585 84.702C47.9558 84.922 47.7725 85.1127 47.5085 85.274C46.9952 85.5967 46.4012 85.8387 45.7265 86C45.0665 86.1467 44.4505 86.22 43.8785 86.22ZM46.5185 72.866C46.6505 73.1007 46.6798 73.3133 46.6065 73.504C46.5332 73.6947 46.4085 73.8413 46.2325 73.944C46.0565 74.032 45.8658 74.0613 45.6605 74.032C45.4698 74.0027 45.3085 73.8853 45.1765 73.68L43.3945 70.908L41.6125 73.68C41.4805 73.8853 41.3118 74.0027 41.1065 74.032C40.9158 74.0613 40.7325 74.032 40.5565 73.944C40.3805 73.8413 40.2558 73.6947 40.1825 73.504C40.1092 73.3133 40.1385 73.1007 40.2705 72.866L41.8545 69.962C42.0305 69.6247 42.2432 69.3753 42.4925 69.214C42.7565 69.0527 43.0572 68.972 43.3945 68.972C43.7318 68.972 44.0325 69.0527 44.2965 69.214C44.5605 69.3753 44.7805 69.6247 44.9565 69.962L46.5185 72.866ZM60.015 86.22C59.2376 86.22 58.541 86.0733 57.925 85.78C57.3236 85.472 56.847 85.0613 56.495 84.548C56.1576 84.0347 55.989 83.4553 55.989 82.81C55.989 82.018 56.1943 81.3947 56.605 80.94C57.0156 80.4707 57.683 80.1333 58.607 79.928C59.531 79.7227 60.7703 79.62 62.325 79.62H63.425V81.204H62.347C61.4376 81.204 60.7116 81.248 60.169 81.336C59.6263 81.424 59.2376 81.578 59.003 81.798C58.783 82.0033 58.673 82.2967 58.673 82.678C58.673 83.162 58.8416 83.558 59.179 83.866C59.5163 84.174 59.9856 84.328 60.587 84.328C61.071 84.328 61.4963 84.218 61.863 83.998C62.2443 83.7633 62.545 83.448 62.765 83.052C62.985 82.656 63.095 82.2013 63.095 81.688V79.158C63.095 78.4247 62.9336 77.8967 62.611 77.574C62.2883 77.2513 61.7456 77.09 60.983 77.09C60.5576 77.09 60.0956 77.1413 59.597 77.244C59.113 77.3467 58.5996 77.5227 58.057 77.772C57.7783 77.904 57.529 77.9407 57.309 77.882C57.1036 77.8233 56.9423 77.706 56.825 77.53C56.7076 77.3393 56.649 77.134 56.649 76.914C56.649 76.694 56.7076 76.4813 56.825 76.276C56.9423 76.056 57.1403 75.8947 57.419 75.792C58.0936 75.5133 58.739 75.3153 59.355 75.198C59.9856 75.0807 60.5576 75.022 61.071 75.022C62.127 75.022 62.9923 75.1833 63.667 75.506C64.3563 75.8287 64.8696 76.32 65.207 76.98C65.5443 77.6253 65.713 78.4613 65.713 79.488V84.768C65.713 85.2227 65.603 85.5747 65.383 85.824C65.163 86.0587 64.8476 86.176 64.437 86.176C64.0263 86.176 63.7036 86.0587 63.469 85.824C63.249 85.5747 63.139 85.2227 63.139 84.768V83.712H63.315C63.2123 84.2253 63.007 84.6727 62.699 85.054C62.4056 85.4207 62.0316 85.7067 61.577 85.912C61.1223 86.1173 60.6016 86.22 60.015 86.22ZM69.8682 86.154C69.4282 86.154 69.0909 86.022 68.8562 85.758C68.6216 85.494 68.5042 85.1273 68.5042 84.658V76.584C68.5042 76.1 68.6216 75.7333 68.8562 75.484C69.0909 75.22 69.4282 75.088 69.8682 75.088C70.3082 75.088 70.6456 75.22 70.8802 75.484C71.1296 75.7333 71.2542 76.1 71.2542 76.584V84.658C71.2542 85.1273 71.1369 85.494 70.9022 85.758C70.6676 86.022 70.3229 86.154 69.8682 86.154ZM69.8682 73.042C69.3549 73.042 68.9516 72.9173 68.6582 72.668C68.3796 72.404 68.2402 72.0447 68.2402 71.59C68.2402 71.1207 68.3796 70.7613 68.6582 70.512C68.9516 70.2627 69.3549 70.138 69.8682 70.138C70.3962 70.138 70.7996 70.2627 71.0782 70.512C71.3569 70.7613 71.4962 71.1207 71.4962 71.59C71.4962 72.0447 71.3569 72.404 71.0782 72.668C70.7996 72.9173 70.3962 73.042 69.8682 73.042ZM75.4756 86.176C75.0356 86.176 74.6983 86.0587 74.4636 85.824C74.229 85.5747 74.1116 85.2227 74.1116 84.768V76.452C74.1116 75.9973 74.229 75.6527 74.4636 75.418C74.6983 75.1833 75.0283 75.066 75.4536 75.066C75.879 75.066 76.209 75.1833 76.4436 75.418C76.6783 75.6527 76.7956 75.9973 76.7956 76.452V77.948L76.5536 77.398C76.8763 76.6207 77.375 76.034 78.0496 75.638C78.739 75.2273 79.5163 75.022 80.3816 75.022C81.247 75.022 81.9583 75.1833 82.5156 75.506C83.073 75.8287 83.491 76.32 83.7696 76.98C84.0483 77.6253 84.1876 78.4467 84.1876 79.444V84.768C84.1876 85.2227 84.0703 85.5747 83.8356 85.824C83.601 86.0587 83.2636 86.176 82.8236 86.176C82.3836 86.176 82.039 86.0587 81.7896 85.824C81.555 85.5747 81.4376 85.2227 81.4376 84.768V79.576C81.4376 78.74 81.2763 78.1313 80.9536 77.75C80.6456 77.3687 80.1616 77.178 79.5016 77.178C78.695 77.178 78.0496 77.4347 77.5656 77.948C77.0963 78.4467 76.8616 79.114 76.8616 79.95V84.768C76.8616 85.7067 76.3996 86.176 75.4756 86.176ZM91.1168 86.22C90.1781 86.22 89.3494 85.9927 88.6308 85.538C87.9268 85.0833 87.3768 84.438 86.9808 83.602C86.5848 82.7513 86.3868 81.754 86.3868 80.61C86.3868 79.4513 86.5848 78.4613 86.9808 77.64C87.3768 76.804 87.9268 76.1587 88.6308 75.704C89.3494 75.2493 90.1781 75.022 91.1168 75.022C92.0114 75.022 92.7888 75.242 93.4488 75.682C94.1234 76.122 94.5781 76.7013 94.8128 77.42H94.5708V71.7C94.5708 71.2453 94.6881 70.9007 94.9228 70.666C95.1574 70.4313 95.4948 70.314 95.9348 70.314C96.3748 70.314 96.7121 70.4313 96.9468 70.666C97.1961 70.9007 97.3208 71.2453 97.3208 71.7V84.768C97.3208 85.2227 97.2034 85.5747 96.9688 85.824C96.7341 86.0587 96.3968 86.176 95.9568 86.176C95.5168 86.176 95.1794 86.0587 94.9448 85.824C94.7101 85.5747 94.5928 85.2227 94.5928 84.768V83.052L94.8348 83.712C94.6148 84.4747 94.1674 85.0833 93.4928 85.538C92.8181 85.9927 92.0261 86.22 91.1168 86.22ZM91.8868 84.13C92.4294 84.13 92.9061 83.998 93.3168 83.734C93.7274 83.47 94.0428 83.0813 94.2628 82.568C94.4974 82.04 94.6148 81.3873 94.6148 80.61C94.6148 79.4367 94.3654 78.564 93.8668 77.992C93.3681 77.4053 92.7081 77.112 91.8868 77.112C91.3441 77.112 90.8674 77.244 90.4568 77.508C90.0461 77.7573 89.7234 78.146 89.4888 78.674C89.2688 79.1873 89.1588 79.8327 89.1588 80.61C89.1588 81.7687 89.4081 82.6487 89.9068 83.25C90.4054 83.8367 91.0654 84.13 91.8868 84.13ZM103.714 86.22C102.937 86.22 102.24 86.0733 101.624 85.78C101.023 85.472 100.546 85.0613 100.194 84.548C99.8569 84.0347 99.6882 83.4553 99.6882 82.81C99.6882 82.018 99.8935 81.3947 100.304 80.94C100.715 80.4707 101.382 80.1333 102.306 79.928C103.23 79.7227 104.47 79.62 106.024 79.62H107.124V81.204H106.046C105.137 81.204 104.411 81.248 103.868 81.336C103.326 81.424 102.937 81.578 102.702 81.798C102.482 82.0033 102.372 82.2967 102.372 82.678C102.372 83.162 102.541 83.558 102.878 83.866C103.216 84.174 103.685 84.328 104.286 84.328C104.77 84.328 105.196 84.218 105.562 83.998C105.944 83.7633 106.244 83.448 106.464 83.052C106.684 82.656 106.794 82.2013 106.794 81.688V79.158C106.794 78.4247 106.633 77.8967 106.31 77.574C105.988 77.2513 105.445 77.09 104.682 77.09C104.257 77.09 103.795 77.1413 103.296 77.244C102.812 77.3467 102.299 77.5227 101.756 77.772C101.478 77.904 101.228 77.9407 101.008 77.882C100.803 77.8233 100.642 77.706 100.524 77.53C100.407 77.3393 100.348 77.134 100.348 76.914C100.348 76.694 100.407 76.4813 100.524 76.276C100.642 76.056 100.84 75.8947 101.118 75.792C101.793 75.5133 102.438 75.3153 103.054 75.198C103.685 75.0807 104.257 75.022 104.77 75.022C105.826 75.022 106.692 75.1833 107.366 75.506C108.056 75.8287 108.569 76.32 108.906 76.98C109.244 77.6253 109.412 78.4613 109.412 79.488V84.768C109.412 85.2227 109.302 85.5747 109.082 85.824C108.862 86.0587 108.547 86.176 108.136 86.176C107.726 86.176 107.403 86.0587 107.168 85.824C106.948 85.5747 106.838 85.2227 106.838 84.768V83.712H107.014C106.912 84.2253 106.706 84.6727 106.398 85.054C106.105 85.4207 105.731 85.7067 105.276 85.912C104.822 86.1173 104.301 86.22 103.714 86.22ZM119.54 86.176C119.1 86.176 118.763 86.0587 118.528 85.824C118.293 85.5747 118.176 85.2227 118.176 84.768V76.452C118.176 75.9973 118.293 75.6527 118.528 75.418C118.763 75.1833 119.093 75.066 119.518 75.066C119.943 75.066 120.273 75.1833 120.508 75.418C120.743 75.6527 120.86 75.9973 120.86 76.452V77.948L120.618 77.398C120.941 76.6207 121.439 76.034 122.114 75.638C122.803 75.2273 123.581 75.022 124.446 75.022C125.311 75.022 126.023 75.1833 126.58 75.506C127.137 75.8287 127.555 76.32 127.834 76.98C128.113 77.6253 128.252 78.4467 128.252 79.444V84.768C128.252 85.2227 128.135 85.5747 127.9 85.824C127.665 86.0587 127.328 86.176 126.888 86.176C126.448 86.176 126.103 86.0587 125.854 85.824C125.619 85.5747 125.502 85.2227 125.502 84.768V79.576C125.502 78.74 125.341 78.1313 125.018 77.75C124.71 77.3687 124.226 77.178 123.566 77.178C122.759 77.178 122.114 77.4347 121.63 77.948C121.161 78.4467 120.926 79.114 120.926 79.95V84.768C120.926 85.7067 120.464 86.176 119.54 86.176ZM134.587 86.22C133.81 86.22 133.113 86.0733 132.497 85.78C131.896 85.472 131.419 85.0613 131.067 84.548C130.73 84.0347 130.561 83.4553 130.561 82.81C130.561 82.018 130.767 81.3947 131.177 80.94C131.588 80.4707 132.255 80.1333 133.179 79.928C134.103 79.7227 135.343 79.62 136.897 79.62H137.997V81.204H136.919C136.01 81.204 135.284 81.248 134.741 81.336C134.199 81.424 133.81 81.578 133.575 81.798C133.355 82.0033 133.245 82.2967 133.245 82.678C133.245 83.162 133.414 83.558 133.751 83.866C134.089 84.174 134.558 84.328 135.159 84.328C135.643 84.328 136.069 84.218 136.435 83.998C136.817 83.7633 137.117 83.448 137.337 83.052C137.557 82.656 137.667 82.2013 137.667 81.688V79.158C137.667 78.4247 137.506 77.8967 137.183 77.574C136.861 77.2513 136.318 77.09 135.555 77.09C135.13 77.09 134.668 77.1413 134.169 77.244C133.685 77.3467 133.172 77.5227 132.629 77.772C132.351 77.904 132.101 77.9407 131.881 77.882C131.676 77.8233 131.515 77.706 131.397 77.53C131.28 77.3393 131.221 77.134 131.221 76.914C131.221 76.694 131.28 76.4813 131.397 76.276C131.515 76.056 131.713 75.8947 131.991 75.792C132.666 75.5133 133.311 75.3153 133.927 75.198C134.558 75.0807 135.13 75.022 135.643 75.022C136.699 75.022 137.565 75.1833 138.239 75.506C138.929 75.8287 139.442 76.32 139.779 76.98C140.117 77.6253 140.285 78.4613 140.285 79.488V84.768C140.285 85.2227 140.175 85.5747 139.955 85.824C139.735 86.0587 139.42 86.176 139.009 86.176C138.599 86.176 138.276 86.0587 138.041 85.824C137.821 85.5747 137.711 85.2227 137.711 84.768V83.712H137.887C137.785 84.2253 137.579 84.6727 137.271 85.054C136.978 85.4207 136.604 85.7067 136.149 85.912C135.695 86.1173 135.174 86.22 134.587 86.22ZM132.167 73.218C131.947 73.2033 131.779 73.13 131.661 72.998C131.544 72.866 131.515 72.6607 131.573 72.382C131.632 72.074 131.72 71.7733 131.837 71.48C131.969 71.172 132.138 70.8933 132.343 70.644C132.549 70.3947 132.798 70.1967 133.091 70.05C133.385 69.8887 133.729 69.808 134.125 69.808C134.492 69.808 134.815 69.8813 135.093 70.028C135.372 70.1747 135.629 70.3433 135.863 70.534C136.098 70.7247 136.333 70.8933 136.567 71.04C136.802 71.1867 137.059 71.26 137.337 71.26C137.645 71.26 137.909 71.1573 138.129 70.952C138.364 70.732 138.511 70.4607 138.569 70.138C138.599 69.9767 138.672 69.852 138.789 69.764C138.921 69.676 139.105 69.6393 139.339 69.654C139.559 69.6687 139.728 69.742 139.845 69.874C139.963 70.006 139.992 70.2113 139.933 70.49C139.86 70.886 139.721 71.282 139.515 71.678C139.31 72.074 139.031 72.404 138.679 72.668C138.342 72.932 137.909 73.064 137.381 73.064C137.015 73.064 136.692 72.9907 136.413 72.844C136.135 72.6973 135.871 72.5287 135.621 72.338C135.387 72.1473 135.152 71.9787 134.917 71.832C134.683 71.6853 134.433 71.612 134.169 71.612C133.861 71.612 133.597 71.7147 133.377 71.92C133.157 72.1253 133.011 72.3967 132.937 72.734C132.908 72.8953 132.827 73.02 132.695 73.108C132.578 73.196 132.402 73.2327 132.167 73.218ZM147.982 86.22C146.868 86.22 145.9 85.9927 145.078 85.538C144.257 85.0833 143.619 84.438 143.164 83.602C142.71 82.7513 142.482 81.754 142.482 80.61C142.482 79.7447 142.607 78.9747 142.856 78.3C143.12 77.6107 143.494 77.024 143.978 76.54C144.462 76.0413 145.042 75.6673 145.716 75.418C146.391 75.154 147.146 75.022 147.982 75.022C149.097 75.022 150.065 75.2493 150.886 75.704C151.708 76.1587 152.346 76.804 152.8 77.64C153.255 78.476 153.482 79.466 153.482 80.61C153.482 81.4753 153.35 82.2527 153.086 82.942C152.837 83.6313 152.47 84.2253 151.986 84.724C151.502 85.208 150.923 85.582 150.248 85.846C149.574 86.0953 148.818 86.22 147.982 86.22ZM147.982 84.13C148.525 84.13 149.002 83.998 149.412 83.734C149.823 83.47 150.138 83.0813 150.358 82.568C150.593 82.04 150.71 81.3873 150.71 80.61C150.71 79.4367 150.461 78.564 149.962 77.992C149.464 77.4053 148.804 77.112 147.982 77.112C147.44 77.112 146.963 77.244 146.552 77.508C146.142 77.7573 145.819 78.146 145.584 78.674C145.364 79.1873 145.254 79.8327 145.254 80.61C145.254 81.7687 145.504 82.6487 146.002 83.25C146.501 83.8367 147.161 84.13 147.982 84.13ZM163.089 90.136C162.649 90.136 162.312 90.0187 162.077 89.784C161.842 89.5493 161.725 89.2047 161.725 88.75V76.452C161.725 75.9973 161.842 75.6527 162.077 75.418C162.312 75.1833 162.642 75.066 163.067 75.066C163.507 75.066 163.844 75.1833 164.079 75.418C164.314 75.6527 164.431 75.9973 164.431 76.452V78.168L164.189 77.508C164.409 76.76 164.856 76.1587 165.531 75.704C166.22 75.2493 167.02 75.022 167.929 75.022C168.868 75.022 169.689 75.2493 170.393 75.704C171.112 76.1587 171.669 76.804 172.065 77.64C172.461 78.4613 172.659 79.4513 172.659 80.61C172.659 81.754 172.461 82.7513 172.065 83.602C171.669 84.438 171.119 85.0833 170.415 85.538C169.711 85.9927 168.882 86.22 167.929 86.22C167.034 86.22 166.25 86 165.575 85.56C164.9 85.1053 164.446 84.5187 164.211 83.8H164.475V88.75C164.475 89.2047 164.35 89.5493 164.101 89.784C163.866 90.0187 163.529 90.136 163.089 90.136ZM167.159 84.13C167.702 84.13 168.178 83.998 168.589 83.734C169 83.47 169.315 83.0813 169.535 82.568C169.77 82.04 169.887 81.3873 169.887 80.61C169.887 79.4367 169.638 78.564 169.139 77.992C168.64 77.4053 167.98 77.112 167.159 77.112C166.616 77.112 166.14 77.244 165.729 77.508C165.318 77.7573 164.996 78.146 164.761 78.674C164.541 79.1873 164.431 79.8327 164.431 80.61C164.431 81.7687 164.68 82.6487 165.179 83.25C165.678 83.8367 166.338 84.13 167.159 84.13ZM179.822 86.22C178.708 86.22 177.74 85.9927 176.918 85.538C176.097 85.0833 175.459 84.438 175.004 83.602C174.55 82.7513 174.322 81.754 174.322 80.61C174.322 79.7447 174.447 78.9747 174.696 78.3C174.96 77.6107 175.334 77.024 175.818 76.54C176.302 76.0413 176.882 75.6673 177.556 75.418C178.231 75.154 178.986 75.022 179.822 75.022C180.937 75.022 181.905 75.2493 182.726 75.704C183.548 76.1587 184.186 76.804 184.64 77.64C185.095 78.476 185.322 79.466 185.322 80.61C185.322 81.4753 185.19 82.2527 184.926 82.942C184.677 83.6313 184.31 84.2253 183.826 84.724C183.342 85.208 182.763 85.582 182.088 85.846C181.414 86.0953 180.658 86.22 179.822 86.22ZM179.822 84.13C180.365 84.13 180.842 83.998 181.252 83.734C181.663 83.47 181.978 83.0813 182.198 82.568C182.433 82.04 182.55 81.3873 182.55 80.61C182.55 79.4367 182.301 78.564 181.802 77.992C181.304 77.4053 180.644 77.112 179.822 77.112C179.28 77.112 178.803 77.244 178.392 77.508C177.982 77.7573 177.659 78.146 177.424 78.674C177.204 79.1873 177.094 79.8327 177.094 80.61C177.094 81.7687 177.344 82.6487 177.842 83.25C178.341 83.8367 179.001 84.13 179.822 84.13ZM191.53 86.22C190.899 86.22 190.232 86.154 189.528 86.022C188.824 85.89 188.193 85.6627 187.636 85.34C187.401 85.1933 187.233 85.0247 187.13 84.834C187.042 84.6287 187.005 84.4307 187.02 84.24C187.049 84.0347 187.123 83.8587 187.24 83.712C187.372 83.5653 187.533 83.47 187.724 83.426C187.929 83.382 188.149 83.4187 188.384 83.536C188.971 83.8147 189.521 84.0127 190.034 84.13C190.547 84.2327 191.053 84.284 191.552 84.284C192.256 84.284 192.777 84.1667 193.114 83.932C193.466 83.6827 193.642 83.36 193.642 82.964C193.642 82.6267 193.525 82.37 193.29 82.194C193.07 82.0033 192.733 81.864 192.278 81.776L190.078 81.358C189.169 81.182 188.472 80.852 187.988 80.368C187.519 79.8693 187.284 79.2313 187.284 78.454C187.284 77.75 187.475 77.1413 187.856 76.628C188.252 76.1147 188.795 75.7187 189.484 75.44C190.173 75.1613 190.965 75.022 191.86 75.022C192.505 75.022 193.107 75.0953 193.664 75.242C194.236 75.374 194.786 75.5867 195.314 75.88C195.534 75.9973 195.681 76.1513 195.754 76.342C195.842 76.5327 195.864 76.7307 195.82 76.936C195.776 77.1267 195.688 77.3027 195.556 77.464C195.424 77.6107 195.255 77.706 195.05 77.75C194.859 77.7793 194.639 77.7353 194.39 77.618C193.935 77.3833 193.495 77.2147 193.07 77.112C192.659 77.0093 192.263 76.958 191.882 76.958C191.163 76.958 190.628 77.0827 190.276 77.332C189.939 77.5813 189.77 77.9113 189.77 78.322C189.77 78.63 189.873 78.8867 190.078 79.092C190.283 79.2973 190.599 79.4367 191.024 79.51L193.224 79.928C194.177 80.104 194.896 80.4267 195.38 80.896C195.879 81.3653 196.128 81.996 196.128 82.788C196.128 83.8587 195.71 84.702 194.874 85.318C194.038 85.9193 192.923 86.22 191.53 86.22ZM202.272 86.22C201.642 86.22 200.974 86.154 200.27 86.022C199.566 85.89 198.936 85.6627 198.378 85.34C198.144 85.1933 197.975 85.0247 197.872 84.834C197.784 84.6287 197.748 84.4307 197.762 84.24C197.792 84.0347 197.865 83.8587 197.982 83.712C198.114 83.5653 198.276 83.47 198.466 83.426C198.672 83.382 198.892 83.4187 199.126 83.536C199.713 83.8147 200.263 84.0127 200.776 84.13C201.29 84.2327 201.796 84.284 202.294 84.284C202.998 84.284 203.519 84.1667 203.856 83.932C204.208 83.6827 204.384 83.36 204.384 82.964C204.384 82.6267 204.267 82.37 204.032 82.194C203.812 82.0033 203.475 81.864 203.02 81.776L200.82 81.358C199.911 81.182 199.214 80.852 198.73 80.368C198.261 79.8693 198.026 79.2313 198.026 78.454C198.026 77.75 198.217 77.1413 198.598 76.628C198.994 76.1147 199.537 75.7187 200.226 75.44C200.916 75.1613 201.708 75.022 202.602 75.022C203.248 75.022 203.849 75.0953 204.406 75.242C204.978 75.374 205.528 75.5867 206.056 75.88C206.276 75.9973 206.423 76.1513 206.496 76.342C206.584 76.5327 206.606 76.7307 206.562 76.936C206.518 77.1267 206.43 77.3027 206.298 77.464C206.166 77.6107 205.998 77.706 205.792 77.75C205.602 77.7793 205.382 77.7353 205.132 77.618C204.678 77.3833 204.238 77.2147 203.812 77.112C203.402 77.0093 203.006 76.958 202.624 76.958C201.906 76.958 201.37 77.0827 201.018 77.332C200.681 77.5813 200.512 77.9113 200.512 78.322C200.512 78.63 200.615 78.8867 200.82 79.092C201.026 79.2973 201.341 79.4367 201.766 79.51L203.966 79.928C204.92 80.104 205.638 80.4267 206.122 80.896C206.621 81.3653 206.87 81.996 206.87 82.788C206.87 83.8587 206.452 84.702 205.616 85.318C204.78 85.9193 203.666 86.22 202.272 86.22ZM212.97 86.22C212.076 86.22 211.335 86.0587 210.748 85.736C210.162 85.3987 209.722 84.9 209.428 84.24C209.15 83.58 209.01 82.7587 209.01 81.776V76.452C209.01 75.9827 209.128 75.638 209.362 75.418C209.597 75.1833 209.934 75.066 210.374 75.066C210.814 75.066 211.152 75.1833 211.386 75.418C211.636 75.638 211.76 75.9827 211.76 76.452V81.82C211.76 82.5827 211.914 83.1473 212.222 83.514C212.53 83.8807 213.022 84.064 213.696 84.064C214.43 84.064 215.031 83.8147 215.5 83.316C215.97 82.8027 216.204 82.128 216.204 81.292V76.452C216.204 75.9827 216.322 75.638 216.556 75.418C216.791 75.1833 217.128 75.066 217.568 75.066C218.008 75.066 218.346 75.1833 218.58 75.418C218.83 75.638 218.954 75.9827 218.954 76.452V84.768C218.954 85.7067 218.507 86.176 217.612 86.176C217.187 86.176 216.857 86.0587 216.622 85.824C216.388 85.5747 216.27 85.2227 216.27 84.768V83.096L216.578 83.756C216.27 84.548 215.801 85.1567 215.17 85.582C214.554 86.0073 213.821 86.22 212.97 86.22ZM223.181 86.154C222.741 86.154 222.403 86.022 222.169 85.758C221.934 85.494 221.817 85.1273 221.817 84.658V76.584C221.817 76.1 221.934 75.7333 222.169 75.484C222.403 75.22 222.741 75.088 223.181 75.088C223.621 75.088 223.958 75.22 224.193 75.484C224.442 75.7333 224.567 76.1 224.567 76.584V84.658C224.567 85.1273 224.449 85.494 224.215 85.758C223.98 86.022 223.635 86.154 223.181 86.154ZM223.181 73.042C222.667 73.042 222.264 72.9173 221.971 72.668C221.692 72.404 221.553 72.0447 221.553 71.59C221.553 71.1207 221.692 70.7613 221.971 70.512C222.264 70.2627 222.667 70.138 223.181 70.138C223.709 70.138 224.112 70.2627 224.391 70.512C224.669 70.7613 224.809 71.1207 224.809 71.59C224.809 72.0447 224.669 72.404 224.391 72.668C224.112 72.9173 223.709 73.042 223.181 73.042ZM234.761 86.176C234.321 86.176 233.983 86.0587 233.749 85.824C233.514 85.5747 233.397 85.2227 233.397 84.768V76.452C233.397 75.9973 233.514 75.6527 233.749 75.418C233.983 75.1833 234.313 75.066 234.739 75.066C235.164 75.066 235.494 75.1833 235.729 75.418C235.963 75.6527 236.081 75.9973 236.081 76.452V77.948L235.839 77.398C236.161 76.6207 236.66 76.034 237.335 75.638C238.024 75.2273 238.801 75.022 239.667 75.022C240.532 75.022 241.243 75.1833 241.801 75.506C242.358 75.8287 242.776 76.32 243.055 76.98C243.333 77.6253 243.473 78.4467 243.473 79.444V84.768C243.473 85.2227 243.355 85.5747 243.121 85.824C242.886 86.0587 242.549 86.176 242.109 86.176C241.669 86.176 241.324 86.0587 241.075 85.824C240.84 85.5747 240.723 85.2227 240.723 84.768V79.576C240.723 78.74 240.561 78.1313 240.239 77.75C239.931 77.3687 239.447 77.178 238.787 77.178C237.98 77.178 237.335 77.4347 236.851 77.948C236.381 78.4467 236.147 79.114 236.147 79.95V84.768C236.147 85.7067 235.685 86.176 234.761 86.176ZM251.568 86.22C250.351 86.22 249.302 85.9927 248.422 85.538C247.542 85.0833 246.86 84.438 246.376 83.602C245.907 82.766 245.672 81.776 245.672 80.632C245.672 79.5173 245.899 78.542 246.354 77.706C246.823 76.87 247.461 76.2173 248.268 75.748C249.089 75.264 250.021 75.022 251.062 75.022C251.825 75.022 252.507 75.1467 253.108 75.396C253.724 75.6453 254.245 76.0047 254.67 76.474C255.11 76.9433 255.44 77.5153 255.66 78.19C255.895 78.85 256.012 79.598 256.012 80.434C256.012 80.698 255.917 80.9033 255.726 81.05C255.55 81.182 255.293 81.248 254.956 81.248H247.894V79.664H254.076L253.724 79.994C253.724 79.3193 253.621 78.7547 253.416 78.3C253.225 77.8453 252.939 77.5007 252.558 77.266C252.191 77.0167 251.729 76.892 251.172 76.892C250.556 76.892 250.028 77.0387 249.588 77.332C249.163 77.6107 248.833 78.014 248.598 78.542C248.378 79.0553 248.268 79.6713 248.268 80.39V80.544C248.268 81.7467 248.547 82.6487 249.104 83.25C249.676 83.8367 250.512 84.13 251.612 84.13C251.993 84.13 252.419 84.086 252.888 83.998C253.372 83.8953 253.827 83.7267 254.252 83.492C254.56 83.316 254.831 83.2427 255.066 83.272C255.301 83.2867 255.484 83.3673 255.616 83.514C255.763 83.6607 255.851 83.844 255.88 84.064C255.909 84.2693 255.865 84.482 255.748 84.702C255.645 84.922 255.462 85.1127 255.198 85.274C254.685 85.5967 254.091 85.8387 253.416 86C252.756 86.1467 252.14 86.22 251.568 86.22ZM259.554 86.176C259.114 86.176 258.776 86.0587 258.542 85.824C258.307 85.5747 258.19 85.2227 258.19 84.768V76.452C258.19 75.9973 258.307 75.6527 258.542 75.418C258.776 75.1833 259.106 75.066 259.532 75.066C259.957 75.066 260.287 75.1833 260.522 75.418C260.756 75.6527 260.874 75.9973 260.874 76.452V77.948L260.632 77.398C260.954 76.6207 261.453 76.034 262.128 75.638C262.817 75.2273 263.594 75.022 264.46 75.022C265.325 75.022 266.036 75.1833 266.594 75.506C267.151 75.8287 267.569 76.32 267.848 76.98C268.126 77.6253 268.266 78.4467 268.266 79.444V84.768C268.266 85.2227 268.148 85.5747 267.914 85.824C267.679 86.0587 267.342 86.176 266.902 86.176C266.462 86.176 266.117 86.0587 265.868 85.824C265.633 85.5747 265.516 85.2227 265.516 84.768V79.576C265.516 78.74 265.354 78.1313 265.032 77.75C264.724 77.3687 264.24 77.178 263.58 77.178C262.773 77.178 262.128 77.4347 261.644 77.948C261.174 78.4467 260.94 79.114 260.94 79.95V84.768C260.94 85.7067 260.478 86.176 259.554 86.176ZM272.423 86.176C271.983 86.176 271.646 86.0587 271.411 85.824C271.176 85.5747 271.059 85.2227 271.059 84.768V71.7C271.059 71.2453 271.176 70.9007 271.411 70.666C271.646 70.4313 271.983 70.314 272.423 70.314C272.863 70.314 273.2 70.4313 273.435 70.666C273.684 70.9007 273.809 71.2453 273.809 71.7V77.398H273.501C273.824 76.6207 274.322 76.034 274.997 75.638C275.686 75.2273 276.464 75.022 277.329 75.022C278.194 75.022 278.906 75.1833 279.463 75.506C280.02 75.8287 280.438 76.32 280.717 76.98C280.996 77.6253 281.135 78.4467 281.135 79.444V84.768C281.135 85.2227 281.018 85.5747 280.783 85.824C280.548 86.0587 280.211 86.176 279.771 86.176C279.331 86.176 278.986 86.0587 278.737 85.824C278.502 85.5747 278.385 85.2227 278.385 84.768V79.576C278.385 78.74 278.224 78.1313 277.901 77.75C277.593 77.3687 277.109 77.178 276.449 77.178C275.642 77.178 274.997 77.4347 274.513 77.948C274.044 78.4467 273.809 79.114 273.809 79.95V84.768C273.809 85.7067 273.347 86.176 272.423 86.176ZM287.822 86.22C286.927 86.22 286.187 86.0587 285.6 85.736C285.013 85.3987 284.573 84.9 284.28 84.24C284.001 83.58 283.862 82.7587 283.862 81.776V76.452C283.862 75.9827 283.979 75.638 284.214 75.418C284.449 75.1833 284.786 75.066 285.226 75.066C285.666 75.066 286.003 75.1833 286.238 75.418C286.487 75.638 286.612 75.9827 286.612 76.452V81.82C286.612 82.5827 286.766 83.1473 287.074 83.514C287.382 83.8807 287.873 84.064 288.548 84.064C289.281 84.064 289.883 83.8147 290.352 83.316C290.821 82.8027 291.056 82.128 291.056 81.292V76.452C291.056 75.9827 291.173 75.638 291.408 75.418C291.643 75.1833 291.98 75.066 292.42 75.066C292.86 75.066 293.197 75.1833 293.432 75.418C293.681 75.638 293.806 75.9827 293.806 76.452V84.768C293.806 85.7067 293.359 86.176 292.464 86.176C292.039 86.176 291.709 86.0587 291.474 85.824C291.239 85.5747 291.122 85.2227 291.122 84.768V83.096L291.43 83.756C291.122 84.548 290.653 85.1567 290.022 85.582C289.406 86.0073 288.673 86.22 287.822 86.22ZM298.076 86.176C297.636 86.176 297.299 86.0587 297.064 85.824C296.83 85.5747 296.712 85.2227 296.712 84.768V76.452C296.712 75.9973 296.83 75.6527 297.064 75.418C297.299 75.1833 297.629 75.066 298.054 75.066C298.48 75.066 298.81 75.1833 299.044 75.418C299.279 75.6527 299.396 75.9973 299.396 76.452V78.058L299.154 77.398C299.448 76.6647 299.902 76.0853 300.518 75.66C301.134 75.2347 301.868 75.022 302.718 75.022C303.584 75.022 304.295 75.2273 304.852 75.638C305.41 76.0487 305.798 76.6793 306.018 77.53H305.71C306.004 76.7527 306.488 76.144 307.162 75.704C307.837 75.2493 308.614 75.022 309.494 75.022C310.316 75.022 310.99 75.1833 311.518 75.506C312.061 75.8287 312.464 76.32 312.728 76.98C312.992 77.6253 313.124 78.4467 313.124 79.444V84.768C313.124 85.2227 313 85.5747 312.75 85.824C312.516 86.0587 312.178 86.176 311.738 86.176C311.298 86.176 310.961 86.0587 310.726 85.824C310.492 85.5747 310.374 85.2227 310.374 84.768V79.554C310.374 78.7327 310.235 78.1313 309.956 77.75C309.692 77.3687 309.238 77.178 308.592 77.178C307.874 77.178 307.309 77.4347 306.898 77.948C306.488 78.4467 306.282 79.1433 306.282 80.038V84.768C306.282 85.2227 306.165 85.5747 305.93 85.824C305.696 86.0587 305.358 86.176 304.918 86.176C304.478 86.176 304.134 86.0587 303.884 85.824C303.65 85.5747 303.532 85.2227 303.532 84.768V79.554C303.532 78.7327 303.393 78.1313 303.114 77.75C302.85 77.3687 302.403 77.178 301.772 77.178C301.054 77.178 300.489 77.4347 300.078 77.948C299.668 78.4467 299.462 79.1433 299.462 80.038V84.768C299.462 85.7067 299 86.176 298.076 86.176ZM325.608 86.22C324.391 86.22 323.474 85.8753 322.858 85.186C322.242 84.482 321.934 83.4553 321.934 82.106V71.7C321.934 71.2453 322.051 70.9007 322.286 70.666C322.521 70.4313 322.858 70.314 323.298 70.314C323.738 70.314 324.075 70.4313 324.31 70.666C324.559 70.9007 324.684 71.2453 324.684 71.7V81.974C324.684 82.6487 324.823 83.1473 325.102 83.47C325.395 83.7927 325.806 83.954 326.334 83.954C326.451 83.954 326.561 83.954 326.664 83.954C326.767 83.9393 326.869 83.9247 326.972 83.91C327.177 83.8807 327.317 83.9393 327.39 84.086C327.463 84.218 327.5 84.4967 327.5 84.922C327.5 85.2887 327.427 85.5747 327.28 85.78C327.133 85.9853 326.891 86.11 326.554 86.154C326.407 86.1687 326.253 86.1833 326.092 86.198C325.931 86.2127 325.769 86.22 325.608 86.22ZM332.501 86.22C331.724 86.22 331.027 86.0733 330.411 85.78C329.81 85.472 329.333 85.0613 328.981 84.548C328.644 84.0347 328.475 83.4553 328.475 82.81C328.475 82.018 328.681 81.3947 329.091 80.94C329.502 80.4707 330.169 80.1333 331.093 79.928C332.017 79.7227 333.257 79.62 334.811 79.62H335.911V81.204H334.833C333.924 81.204 333.198 81.248 332.655 81.336C332.113 81.424 331.724 81.578 331.489 81.798C331.269 82.0033 331.159 82.2967 331.159 82.678C331.159 83.162 331.328 83.558 331.665 83.866C332.003 84.174 332.472 84.328 333.073 84.328C333.557 84.328 333.983 84.218 334.349 83.998C334.731 83.7633 335.031 83.448 335.251 83.052C335.471 82.656 335.581 82.2013 335.581 81.688V79.158C335.581 78.4247 335.42 77.8967 335.097 77.574C334.775 77.2513 334.232 77.09 333.469 77.09C333.044 77.09 332.582 77.1413 332.083 77.244C331.599 77.3467 331.086 77.5227 330.543 77.772C330.265 77.904 330.015 77.9407 329.795 77.882C329.59 77.8233 329.429 77.706 329.311 77.53C329.194 77.3393 329.135 77.134 329.135 76.914C329.135 76.694 329.194 76.4813 329.311 76.276C329.429 76.056 329.627 75.8947 329.905 75.792C330.58 75.5133 331.225 75.3153 331.841 75.198C332.472 75.0807 333.044 75.022 333.557 75.022C334.613 75.022 335.479 75.1833 336.153 75.506C336.843 75.8287 337.356 76.32 337.693 76.98C338.031 77.6253 338.199 78.4613 338.199 79.488V84.768C338.199 85.2227 338.089 85.5747 337.869 85.824C337.649 86.0587 337.334 86.176 336.923 86.176C336.513 86.176 336.19 86.0587 335.955 85.824C335.735 85.5747 335.625 85.2227 335.625 84.768V83.712H335.801C335.699 84.2253 335.493 84.6727 335.185 85.054C334.892 85.4207 334.518 85.7067 334.063 85.912C333.609 86.1173 333.088 86.22 332.501 86.22ZM342.355 86.176C341.915 86.176 341.577 86.0587 341.343 85.824C341.108 85.5747 340.991 85.2227 340.991 84.768V76.452C340.991 75.9973 341.108 75.6527 341.343 75.418C341.577 75.1833 341.907 75.066 342.333 75.066C342.758 75.066 343.088 75.1833 343.323 75.418C343.557 75.6527 343.675 75.9973 343.675 76.452V77.948L343.433 77.398C343.755 76.6207 344.254 76.034 344.929 75.638C345.618 75.2273 346.395 75.022 347.261 75.022C348.126 75.022 348.837 75.1833 349.395 75.506C349.952 75.8287 350.37 76.32 350.649 76.98C350.927 77.6253 351.067 78.4467 351.067 79.444V84.768C351.067 85.2227 350.949 85.5747 350.715 85.824C350.48 86.0587 350.143 86.176 349.703 86.176C349.263 86.176 348.918 86.0587 348.669 85.824C348.434 85.5747 348.317 85.2227 348.317 84.768V79.576C348.317 78.74 348.155 78.1313 347.833 77.75C347.525 77.3687 347.041 77.178 346.381 77.178C345.574 77.178 344.929 77.4347 344.445 77.948C343.975 78.4467 343.741 79.114 343.741 79.95V84.768C343.741 85.7067 343.279 86.176 342.355 86.176ZM358.832 86.22C357.702 86.22 356.72 85.9927 355.884 85.538C355.048 85.0687 354.402 84.4087 353.948 83.558C353.493 82.7073 353.266 81.71 353.266 80.566C353.266 79.7007 353.39 78.9307 353.64 78.256C353.904 77.5667 354.278 76.9873 354.762 76.518C355.246 76.034 355.832 75.6673 356.522 75.418C357.211 75.154 357.981 75.022 358.832 75.022C359.316 75.022 359.836 75.088 360.394 75.22C360.966 75.352 361.501 75.572 362 75.88C362.234 76.0267 362.388 76.2027 362.462 76.408C362.535 76.6133 362.55 76.826 362.506 77.046C362.462 77.2513 362.366 77.4347 362.22 77.596C362.088 77.7427 361.919 77.838 361.714 77.882C361.508 77.9113 361.281 77.86 361.032 77.728C360.709 77.5373 360.379 77.398 360.042 77.31C359.704 77.2073 359.382 77.156 359.074 77.156C358.59 77.156 358.164 77.2367 357.798 77.398C357.431 77.5447 357.116 77.7647 356.852 78.058C356.602 78.3367 356.412 78.6887 356.28 79.114C356.148 79.5393 356.082 80.0307 356.082 80.588C356.082 81.6733 356.338 82.5313 356.852 83.162C357.38 83.778 358.12 84.086 359.074 84.086C359.382 84.086 359.697 84.042 360.02 83.954C360.357 83.866 360.694 83.7267 361.032 83.536C361.281 83.404 361.501 83.36 361.692 83.404C361.897 83.448 362.066 83.5507 362.198 83.712C362.33 83.8587 362.41 84.042 362.44 84.262C362.469 84.4673 362.44 84.6727 362.352 84.878C362.278 85.0833 362.132 85.252 361.912 85.384C361.428 85.6773 360.914 85.89 360.372 86.022C359.829 86.154 359.316 86.22 358.832 86.22ZM358.7 90.29C358.421 90.29 358.128 90.268 357.82 90.224C357.512 90.1947 357.233 90.136 356.984 90.048C356.764 89.9747 356.61 89.85 356.522 89.674C356.448 89.5127 356.434 89.344 356.478 89.168C356.536 89.0067 356.639 88.882 356.786 88.794C356.947 88.706 357.138 88.706 357.358 88.794C357.548 88.8527 357.732 88.8967 357.908 88.926C358.084 88.9553 358.274 88.97 358.48 88.97C358.861 88.97 359.154 88.9113 359.36 88.794C359.565 88.6913 359.668 88.53 359.668 88.31C359.668 88.1487 359.602 88.024 359.47 87.936C359.352 87.848 359.147 87.804 358.854 87.804C358.751 87.804 358.641 87.804 358.524 87.804C358.421 87.8187 358.311 87.8407 358.194 87.87C358.091 87.8993 357.996 87.9067 357.908 87.892C357.834 87.892 357.761 87.8627 357.688 87.804C357.629 87.7453 357.592 87.672 357.578 87.584C357.563 87.496 357.563 87.3787 357.578 87.232L357.82 85.56H359.294L359.008 87.232L358.304 86.99C358.48 86.9313 358.656 86.8873 358.832 86.858C359.008 86.8287 359.169 86.814 359.316 86.814C359.917 86.814 360.401 86.9533 360.768 87.232C361.134 87.5107 361.318 87.8993 361.318 88.398C361.318 88.97 361.076 89.4247 360.592 89.762C360.108 90.114 359.477 90.29 358.7 90.29ZM367.714 86.22C366.937 86.22 366.24 86.0733 365.624 85.78C365.023 85.472 364.546 85.0613 364.194 84.548C363.857 84.0347 363.688 83.4553 363.688 82.81C363.688 82.018 363.894 81.3947 364.304 80.94C364.715 80.4707 365.382 80.1333 366.306 79.928C367.23 79.7227 368.47 79.62 370.024 79.62H371.124V81.204H370.046C369.137 81.204 368.411 81.248 367.868 81.336C367.326 81.424 366.937 81.578 366.702 81.798C366.482 82.0033 366.372 82.2967 366.372 82.678C366.372 83.162 366.541 83.558 366.878 83.866C367.216 84.174 367.685 84.328 368.286 84.328C368.77 84.328 369.196 84.218 369.562 83.998C369.944 83.7633 370.244 83.448 370.464 83.052C370.684 82.656 370.794 82.2013 370.794 81.688V79.158C370.794 78.4247 370.633 77.8967 370.31 77.574C369.988 77.2513 369.445 77.09 368.682 77.09C368.257 77.09 367.795 77.1413 367.296 77.244C366.812 77.3467 366.299 77.5227 365.756 77.772C365.478 77.904 365.228 77.9407 365.008 77.882C364.803 77.8233 364.642 77.706 364.524 77.53C364.407 77.3393 364.348 77.134 364.348 76.914C364.348 76.694 364.407 76.4813 364.524 76.276C364.642 76.056 364.84 75.8947 365.118 75.792C365.793 75.5133 366.438 75.3153 367.054 75.198C367.685 75.0807 368.257 75.022 368.77 75.022C369.826 75.022 370.692 75.1833 371.366 75.506C372.056 75.8287 372.569 76.32 372.906 76.98C373.244 77.6253 373.412 78.4613 373.412 79.488V84.768C373.412 85.2227 373.302 85.5747 373.082 85.824C372.862 86.0587 372.547 86.176 372.136 86.176C371.726 86.176 371.403 86.0587 371.168 85.824C370.948 85.5747 370.838 85.2227 370.838 84.768V83.712H371.014C370.912 84.2253 370.706 84.6727 370.398 85.054C370.105 85.4207 369.731 85.7067 369.276 85.912C368.822 86.1173 368.301 86.22 367.714 86.22ZM377.611 86.176C377.171 86.176 376.834 86.0587 376.599 85.824C376.365 85.5747 376.247 85.2227 376.247 84.768V76.452C376.247 75.9973 376.365 75.6527 376.599 75.418C376.834 75.1833 377.164 75.066 377.589 75.066C378.015 75.066 378.345 75.1833 378.579 75.418C378.814 75.6527 378.931 75.9973 378.931 76.452V78.058L378.689 77.398C378.983 76.6647 379.437 76.0853 380.053 75.66C380.669 75.2347 381.403 75.022 382.253 75.022C383.119 75.022 383.83 75.2273 384.387 75.638C384.945 76.0487 385.333 76.6793 385.553 77.53H385.245C385.539 76.7527 386.023 76.144 386.697 75.704C387.372 75.2493 388.149 75.022 389.029 75.022C389.851 75.022 390.525 75.1833 391.053 75.506C391.596 75.8287 391.999 76.32 392.263 76.98C392.527 77.6253 392.659 78.4467 392.659 79.444V84.768C392.659 85.2227 392.535 85.5747 392.285 85.824C392.051 86.0587 391.713 86.176 391.273 86.176C390.833 86.176 390.496 86.0587 390.261 85.824C390.027 85.5747 389.909 85.2227 389.909 84.768V79.554C389.909 78.7327 389.77 78.1313 389.491 77.75C389.227 77.3687 388.773 77.178 388.127 77.178C387.409 77.178 386.844 77.4347 386.433 77.948C386.023 78.4467 385.817 79.1433 385.817 80.038V84.768C385.817 85.2227 385.7 85.5747 385.465 85.824C385.231 86.0587 384.893 86.176 384.453 86.176C384.013 86.176 383.669 86.0587 383.419 85.824C383.185 85.5747 383.067 85.2227 383.067 84.768V79.554C383.067 78.7327 382.928 78.1313 382.649 77.75C382.385 77.3687 381.938 77.178 381.307 77.178C380.589 77.178 380.024 77.4347 379.613 77.948C379.203 78.4467 378.997 79.1433 378.997 80.038V84.768C378.997 85.7067 378.535 86.176 377.611 86.176ZM400.798 86.22C399.581 86.22 398.532 85.9927 397.652 85.538C396.772 85.0833 396.09 84.438 395.606 83.602C395.137 82.766 394.902 81.776 394.902 80.632C394.902 79.5173 395.13 78.542 395.584 77.706C396.054 76.87 396.692 76.2173 397.498 75.748C398.32 75.264 399.251 75.022 400.292 75.022C401.055 75.022 401.737 75.1467 402.338 75.396C402.954 75.6453 403.475 76.0047 403.9 76.474C404.34 76.9433 404.67 77.5153 404.89 78.19C405.125 78.85 405.242 79.598 405.242 80.434C405.242 80.698 405.147 80.9033 404.956 81.05C404.78 81.182 404.524 81.248 404.186 81.248H397.124V79.664H403.306L402.954 79.994C402.954 79.3193 402.852 78.7547 402.646 78.3C402.456 77.8453 402.17 77.5007 401.788 77.266C401.422 77.0167 400.96 76.892 400.402 76.892C399.786 76.892 399.258 77.0387 398.818 77.332C398.393 77.6107 398.063 78.014 397.828 78.542C397.608 79.0553 397.498 79.6713 397.498 80.39V80.544C397.498 81.7467 397.777 82.6487 398.334 83.25C398.906 83.8367 399.742 84.13 400.842 84.13C401.224 84.13 401.649 84.086 402.118 83.998C402.602 83.8953 403.057 83.7267 403.482 83.492C403.79 83.316 404.062 83.2427 404.296 83.272C404.531 83.2867 404.714 83.3673 404.846 83.514C404.993 83.6607 405.081 83.844 405.11 84.064C405.14 84.2693 405.096 84.482 404.978 84.702C404.876 84.922 404.692 85.1127 404.428 85.274C403.915 85.5967 403.321 85.8387 402.646 86C401.986 86.1467 401.37 86.22 400.798 86.22ZM408.784 86.176C408.344 86.176 408.007 86.0587 407.772 85.824C407.538 85.5747 407.42 85.2227 407.42 84.768V76.452C407.42 75.9973 407.538 75.6527 407.772 75.418C408.007 75.1833 408.337 75.066 408.762 75.066C409.188 75.066 409.518 75.1833 409.752 75.418C409.987 75.6527 410.104 75.9973 410.104 76.452V77.948L409.862 77.398C410.185 76.6207 410.684 76.034 411.358 75.638C412.048 75.2273 412.825 75.022 413.69 75.022C414.556 75.022 415.267 75.1833 415.824 75.506C416.382 75.8287 416.8 76.32 417.078 76.98C417.357 77.6253 417.496 78.4467 417.496 79.444V84.768C417.496 85.2227 417.379 85.5747 417.144 85.824C416.91 86.0587 416.572 86.176 416.132 86.176C415.692 86.176 415.348 86.0587 415.098 85.824C414.864 85.5747 414.746 85.2227 414.746 84.768V79.576C414.746 78.74 414.585 78.1313 414.262 77.75C413.954 77.3687 413.47 77.178 412.81 77.178C412.004 77.178 411.358 77.4347 410.874 77.948C410.405 78.4467 410.17 79.114 410.17 79.95V84.768C410.17 85.7067 409.708 86.176 408.784 86.176ZM425.217 86.22C424.264 86.22 423.465 86.0587 422.819 85.736C422.189 85.4133 421.719 84.944 421.411 84.328C421.103 83.6973 420.949 82.92 420.949 81.996V77.31H419.805C419.453 77.31 419.182 77.222 418.991 77.046C418.801 76.8553 418.705 76.5987 418.705 76.276C418.705 75.9387 418.801 75.682 418.991 75.506C419.182 75.33 419.453 75.242 419.805 75.242H420.949V73.24C420.949 72.7853 421.067 72.4407 421.301 72.206C421.551 71.9713 421.895 71.854 422.335 71.854C422.775 71.854 423.113 71.9713 423.347 72.206C423.582 72.4407 423.699 72.7853 423.699 73.24V75.242H426.031C426.383 75.242 426.655 75.33 426.845 75.506C427.036 75.682 427.131 75.9387 427.131 76.276C427.131 76.5987 427.036 76.8553 426.845 77.046C426.655 77.222 426.383 77.31 426.031 77.31H423.699V81.842C423.699 82.546 423.853 83.074 424.161 83.426C424.469 83.778 424.968 83.954 425.657 83.954C425.907 83.954 426.127 83.932 426.317 83.888C426.508 83.844 426.677 83.8147 426.823 83.8C426.999 83.7853 427.146 83.844 427.263 83.976C427.381 84.0933 427.439 84.3427 427.439 84.724C427.439 85.0173 427.388 85.2813 427.285 85.516C427.197 85.736 427.029 85.89 426.779 85.978C426.589 86.0367 426.339 86.088 426.031 86.132C425.723 86.1907 425.452 86.22 425.217 86.22ZM433.531 86.22C432.417 86.22 431.449 85.9927 430.627 85.538C429.806 85.0833 429.168 84.438 428.713 83.602C428.259 82.7513 428.031 81.754 428.031 80.61C428.031 79.7447 428.156 78.9747 428.405 78.3C428.669 77.6107 429.043 77.024 429.527 76.54C430.011 76.0413 430.591 75.6673 431.265 75.418C431.94 75.154 432.695 75.022 433.531 75.022C434.646 75.022 435.614 75.2493 436.435 75.704C437.257 76.1587 437.895 76.804 438.349 77.64C438.804 78.476 439.031 79.466 439.031 80.61C439.031 81.4753 438.899 82.2527 438.635 82.942C438.386 83.6313 438.019 84.2253 437.535 84.724C437.051 85.208 436.472 85.582 435.797 85.846C435.123 86.0953 434.367 86.22 433.531 86.22ZM433.531 84.13C434.074 84.13 434.551 83.998 434.961 83.734C435.372 83.47 435.687 83.0813 435.907 82.568C436.142 82.04 436.259 81.3873 436.259 80.61C436.259 79.4367 436.01 78.564 435.511 77.992C435.013 77.4053 434.353 77.112 433.531 77.112C432.989 77.112 432.512 77.244 432.101 77.508C431.691 77.7573 431.368 78.146 431.133 78.674C430.913 79.1873 430.803 79.8327 430.803 80.61C430.803 81.7687 431.053 82.6487 431.551 83.25C432.05 83.8367 432.71 84.13 433.531 84.13Z" fill="#343A40"/>
<rect y="244" width="562" height="87.3519" rx="4" fill="#F8F9FA"/>
<path d="M0 248C0 245.791 1.80515 244 4.01429 244V331.352C1.80515 331.352 0 329.561 0 327.352V248Z" fill="#E9ECEF"/>
<path d="M519.85 244H558C560.209 244 562 245.791 562 248V329C562 331.209 560.209 333 558 333H519.85V244Z" fill="#F8F9FA"/>
<rect x="15.0535" y="268.722" width="330.175" height="13.1852" fill="#E9ECEF"/>
<rect x="15.0535" y="295.093" width="76.2714" height="13.1852" fill="#E9ECEF"/>
<rect y="365" width="562" height="87.3519" rx="4" fill="#F8F9FA"/>
<path d="M0 369C0 366.791 1.80515 365 4.01429 365V452.352C1.80515 452.352 0 450.561 0 448.352V369Z" fill="#E9ECEF"/>
<path d="M519.85 365H558C560.209 365 562 366.791 562 369V450C562 452.209 560.209 454 558 454H519.85V365Z" fill="#F8F9FA"/>
<rect x="15.0535" y="389.722" width="330.175" height="13.1852" fill="#E9ECEF"/>
<rect x="15.0535" y="416.093" width="76.2714" height="13.1852" fill="#E9ECEF"/>
<rect y="123" width="562" height="87.3519" rx="4" fill="#F8F9FA"/>
<path d="M0 127C0 124.791 1.80515 123 4.01429 123V210.352C1.80515 210.352 0 208.561 0 206.352V127Z" fill="#E9ECEF"/>
<path d="M519.85 123H558C560.209 123 562 124.791 562 127V208C562 210.209 560.209 212 558 212H519.85V123Z" fill="#F8F9FA"/>
<rect x="15.0535" y="147.722" width="330.175" height="13.1852" fill="#E9ECEF"/>
<rect x="15.0535" y="174.093" width="76.2714" height="13.1852" fill="#E9ECEF"/>
<path d="M2.256 20.128C1.92533 20.128 1.66933 20.0373 1.488 19.856C1.31733 19.664 1.232 19.4027 1.232 19.072V9.76C1.232 9.41867 1.32267 9.16267 1.504 8.992C1.68533 8.81067 1.94133 8.72 2.272 8.72H6.128C7.36533 8.72 8.32 9.01867 8.992 9.616C9.664 10.2027 10 11.0293 10 12.096C10 12.7893 9.84533 13.3867 9.536 13.888C9.23733 14.3893 8.8 14.7733 8.224 15.04C7.648 15.3067 6.94933 15.44 6.128 15.44L6.272 15.2H6.8C7.23733 15.2 7.616 15.3067 7.936 15.52C8.26667 15.7333 8.55467 16.0693 8.8 16.528L10 18.752C10.128 18.976 10.1867 19.1947 10.176 19.408C10.1653 19.6213 10.0853 19.7973 9.936 19.936C9.78667 20.064 9.568 20.128 9.28 20.128C8.992 20.128 8.75733 20.0693 8.576 19.952C8.39467 19.824 8.23467 19.632 8.096 19.376L6.48 16.4C6.288 16.0373 6.05867 15.7973 5.792 15.68C5.536 15.552 5.20533 15.488 4.8 15.488H3.28V19.072C3.28 19.4027 3.19467 19.664 3.024 19.856C2.85333 20.0373 2.59733 20.128 2.256 20.128ZM3.28 13.968H5.776C6.512 13.968 7.06667 13.8187 7.44 13.52C7.824 13.2107 8.016 12.752 8.016 12.144C8.016 11.5467 7.824 11.0987 7.44 10.8C7.06667 10.4907 6.512 10.336 5.776 10.336H3.28V13.968ZM15.6616 20.16C14.7763 20.16 14.0136 19.9947 13.3736 19.664C12.7336 19.3333 12.2376 18.864 11.8856 18.256C11.5443 17.648 11.3736 16.928 11.3736 16.096C11.3736 15.2853 11.539 14.576 11.8696 13.968C12.211 13.36 12.675 12.8853 13.2616 12.544C13.859 12.192 14.5363 12.016 15.2936 12.016C15.8483 12.016 16.3443 12.1067 16.7816 12.288C17.2296 12.4693 17.6083 12.7307 17.9176 13.072C18.2376 13.4133 18.4776 13.8293 18.6376 14.32C18.8083 14.8 18.8936 15.344 18.8936 15.952C18.8936 16.144 18.8243 16.2933 18.6856 16.4C18.5576 16.496 18.371 16.544 18.1256 16.544H12.9896V15.392H17.4856L17.2296 15.632C17.2296 15.1413 17.155 14.7307 17.0056 14.4C16.867 14.0693 16.659 13.8187 16.3816 13.648C16.115 13.4667 15.779 13.376 15.3736 13.376C14.9256 13.376 14.5416 13.4827 14.2216 13.696C13.9123 13.8987 13.6723 14.192 13.5016 14.576C13.3416 14.9493 13.2616 15.3973 13.2616 15.92V16.032C13.2616 16.9067 13.4643 17.5627 13.8696 18C14.2856 18.4267 14.8936 18.64 15.6936 18.64C15.971 18.64 16.2803 18.608 16.6216 18.544C16.9736 18.4693 17.3043 18.3467 17.6136 18.176C17.8376 18.048 18.035 17.9947 18.2056 18.016C18.3763 18.0267 18.5096 18.0853 18.6056 18.192C18.7123 18.2987 18.7763 18.432 18.7976 18.592C18.819 18.7413 18.787 18.896 18.7016 19.056C18.627 19.216 18.4936 19.3547 18.3016 19.472C17.9283 19.7067 17.4963 19.8827 17.0056 20C16.5256 20.1067 16.0776 20.16 15.6616 20.16ZM23.3415 20.16C22.8828 20.16 22.3975 20.112 21.8855 20.016C21.3735 19.92 20.9148 19.7547 20.5095 19.52C20.3388 19.4133 20.2162 19.2907 20.1415 19.152C20.0775 19.0027 20.0508 18.8587 20.0615 18.72C20.0828 18.5707 20.1362 18.4427 20.2215 18.336C20.3175 18.2293 20.4348 18.16 20.5735 18.128C20.7228 18.096 20.8828 18.1227 21.0535 18.208C21.4802 18.4107 21.8802 18.5547 22.2535 18.64C22.6268 18.7147 22.9948 18.752 23.3575 18.752C23.8695 18.752 24.2482 18.6667 24.4935 18.496C24.7495 18.3147 24.8775 18.08 24.8775 17.792C24.8775 17.5467 24.7922 17.36 24.6215 17.232C24.4615 17.0933 24.2162 16.992 23.8855 16.928L22.2855 16.624C21.6242 16.496 21.1175 16.256 20.7655 15.904C20.4242 15.5413 20.2535 15.0773 20.2535 14.512C20.2535 14 20.3922 13.5573 20.6695 13.184C20.9575 12.8107 21.3522 12.5227 21.8535 12.32C22.3548 12.1173 22.9308 12.016 23.5815 12.016C24.0508 12.016 24.4882 12.0693 24.8935 12.176C25.3095 12.272 25.7095 12.4267 26.0935 12.64C26.2535 12.7253 26.3602 12.8373 26.4135 12.976C26.4775 13.1147 26.4935 13.2587 26.4615 13.408C26.4295 13.5467 26.3655 13.6747 26.2695 13.792C26.1735 13.8987 26.0508 13.968 25.9015 14C25.7628 14.0213 25.6028 13.9893 25.4215 13.904C25.0908 13.7333 24.7708 13.6107 24.4615 13.536C24.1628 13.4613 23.8748 13.424 23.5975 13.424C23.0748 13.424 22.6855 13.5147 22.4295 13.696C22.1842 13.8773 22.0615 14.1173 22.0615 14.416C22.0615 14.64 22.1362 14.8267 22.2855 14.976C22.4348 15.1253 22.6642 15.2267 22.9735 15.28L24.5735 15.584C25.2668 15.712 25.7895 15.9467 26.1415 16.288C26.5042 16.6293 26.6855 17.088 26.6855 17.664C26.6855 18.4427 26.3815 19.056 25.7735 19.504C25.1655 19.9413 24.3548 20.16 23.3415 20.16ZM31.122 20.16C30.4713 20.16 29.9327 20.0427 29.506 19.808C29.0793 19.5627 28.7593 19.2 28.546 18.72C28.3433 18.24 28.242 17.6427 28.242 16.928V13.056C28.242 12.7147 28.3273 12.464 28.498 12.304C28.6687 12.1333 28.914 12.048 29.234 12.048C29.554 12.048 29.7993 12.1333 29.97 12.304C30.1513 12.464 30.242 12.7147 30.242 13.056V16.96C30.242 17.5147 30.354 17.9253 30.578 18.192C30.802 18.4587 31.1593 18.592 31.65 18.592C32.1833 18.592 32.6207 18.4107 32.962 18.048C33.3033 17.6747 33.474 17.184 33.474 16.576V13.056C33.474 12.7147 33.5593 12.464 33.73 12.304C33.9007 12.1333 34.146 12.048 34.466 12.048C34.786 12.048 35.0313 12.1333 35.202 12.304C35.3833 12.464 35.474 12.7147 35.474 13.056V19.104C35.474 19.7867 35.1487 20.128 34.498 20.128C34.1887 20.128 33.9487 20.0427 33.778 19.872C33.6073 19.6907 33.522 19.4347 33.522 19.104V17.888L33.746 18.368C33.522 18.944 33.1807 19.3867 32.722 19.696C32.274 20.0053 31.7407 20.16 31.122 20.16ZM38.5796 20.128C38.2596 20.128 38.0143 20.0427 37.8436 19.872C37.673 19.6907 37.5876 19.4347 37.5876 19.104V13.056C37.5876 12.7253 37.673 12.4747 37.8436 12.304C38.0143 12.1333 38.2543 12.048 38.5636 12.048C38.873 12.048 39.113 12.1333 39.2836 12.304C39.4543 12.4747 39.5396 12.7253 39.5396 13.056V14.224L39.3636 13.744C39.577 13.2107 39.9076 12.7893 40.3556 12.48C40.8036 12.1707 41.337 12.016 41.9556 12.016C42.585 12.016 43.1023 12.1653 43.5076 12.464C43.913 12.7627 44.1956 13.2213 44.3556 13.84H44.1316C44.345 13.2747 44.697 12.832 45.1876 12.512C45.6783 12.1813 46.2436 12.016 46.8836 12.016C47.481 12.016 47.9716 12.1333 48.3556 12.368C48.7503 12.6027 49.0436 12.96 49.2356 13.44C49.4276 13.9093 49.5236 14.5067 49.5236 15.232V19.104C49.5236 19.4347 49.433 19.6907 49.2516 19.872C49.081 20.0427 48.8356 20.128 48.5156 20.128C48.1956 20.128 47.9503 20.0427 47.7796 19.872C47.609 19.6907 47.5236 19.4347 47.5236 19.104V15.312C47.5236 14.7147 47.4223 14.2773 47.2196 14C47.0276 13.7227 46.697 13.584 46.2276 13.584C45.705 13.584 45.2943 13.7707 44.9956 14.144C44.697 14.5067 44.5476 15.0133 44.5476 15.664V19.104C44.5476 19.4347 44.4623 19.6907 44.2916 19.872C44.121 20.0427 43.8756 20.128 43.5556 20.128C43.2356 20.128 42.985 20.0427 42.8036 19.872C42.633 19.6907 42.5476 19.4347 42.5476 19.104V15.312C42.5476 14.7147 42.4463 14.2773 42.2436 14C42.0516 13.7227 41.7263 13.584 41.2676 13.584C40.745 13.584 40.3343 13.7707 40.0356 14.144C39.737 14.5067 39.5876 15.0133 39.5876 15.664V19.104C39.5876 19.7867 39.2516 20.128 38.5796 20.128ZM55.1549 20.16C54.3442 20.16 53.6402 19.9947 53.0429 19.664C52.4455 19.3333 51.9815 18.864 51.6509 18.256C51.3202 17.6373 51.1549 16.912 51.1549 16.08C51.1549 15.4507 51.2455 14.8907 51.4269 14.4C51.6189 13.8987 51.8909 13.472 52.2429 13.12C52.5949 12.7573 53.0162 12.4853 53.5069 12.304C53.9975 12.112 54.5469 12.016 55.1549 12.016C55.9655 12.016 56.6695 12.1813 57.2669 12.512C57.8642 12.8427 58.3282 13.312 58.6589 13.92C58.9895 14.528 59.1549 15.248 59.1549 16.08C59.1549 16.7093 59.0589 17.2747 58.8669 17.776C58.6855 18.2773 58.4189 18.7093 58.0669 19.072C57.7149 19.424 57.2935 19.696 56.8029 19.888C56.3122 20.0693 55.7629 20.16 55.1549 20.16ZM55.1549 18.64C55.5495 18.64 55.8962 18.544 56.1949 18.352C56.4935 18.16 56.7229 17.8773 56.8829 17.504C57.0535 17.12 57.1389 16.6453 57.1389 16.08C57.1389 15.2267 56.9575 14.592 56.5949 14.176C56.2322 13.7493 55.7522 13.536 55.1549 13.536C54.7602 13.536 54.4135 13.632 54.1149 13.824C53.8162 14.0053 53.5815 14.288 53.4109 14.672C53.2509 15.0453 53.1709 15.5147 53.1709 16.08C53.1709 16.9227 53.3522 17.5627 53.7149 18C54.0775 18.4267 54.5575 18.64 55.1549 18.64ZM66.6854 20.128C66.3654 20.128 66.1147 20.0427 65.9334 19.872C65.7627 19.6907 65.6774 19.4347 65.6774 19.104V13.68H64.9414C64.6854 13.68 64.488 13.616 64.3494 13.488C64.2107 13.3493 64.1414 13.1627 64.1414 12.928C64.1414 12.6827 64.2107 12.496 64.3494 12.368C64.488 12.24 64.6854 12.176 64.9414 12.176H66.2534L65.6774 12.704V12.16C65.6774 11.0827 65.9494 10.2667 66.4934 9.712C67.0374 9.15733 67.8267 8.82667 68.8614 8.72L69.3414 8.672C69.5867 8.65067 69.7787 8.68267 69.9174 8.768C70.0667 8.85333 70.1627 8.97067 70.2054 9.12C70.2587 9.25867 70.2694 9.408 70.2374 9.568C70.2054 9.71733 70.1414 9.85067 70.0454 9.968C69.9494 10.0747 69.8267 10.1333 69.6774 10.144L69.2934 10.176C68.728 10.2187 68.3174 10.3733 68.0614 10.64C67.8054 10.9067 67.6774 11.3067 67.6774 11.84V12.432L67.4214 12.176H71.8534C72.1734 12.176 72.4187 12.272 72.5894 12.464C72.76 12.6453 72.8454 12.9067 72.8454 13.248V19.024C72.8454 19.3653 72.76 19.632 72.5894 19.824C72.4294 20.016 72.184 20.112 71.8534 20.112C71.5334 20.112 71.2827 20.016 71.1014 19.824C70.9307 19.632 70.8454 19.3653 70.8454 19.024V13.68H67.6774V19.104C67.6774 19.7867 67.3467 20.128 66.6854 20.128ZM71.8854 10.576C71.5227 10.576 71.24 10.4853 71.0374 10.304C70.8454 10.112 70.7494 9.85067 70.7494 9.52C70.7494 9.17867 70.8454 8.91733 71.0374 8.736C71.24 8.55467 71.5227 8.464 71.8854 8.464C72.2587 8.464 72.5414 8.55467 72.7334 8.736C72.936 8.91733 73.0374 9.17867 73.0374 9.52C73.0374 9.85067 72.936 10.112 72.7334 10.304C72.5414 10.4853 72.2587 10.576 71.8854 10.576ZM75.9226 20.128C75.6026 20.128 75.3573 20.0427 75.1866 19.872C75.016 19.6907 74.9306 19.4347 74.9306 19.104V13.056C74.9306 12.7253 75.016 12.4747 75.1866 12.304C75.3573 12.1333 75.5973 12.048 75.9066 12.048C76.216 12.048 76.456 12.1333 76.6266 12.304C76.7973 12.4747 76.8826 12.7253 76.8826 13.056V14.144L76.7066 13.744C76.9413 13.1787 77.304 12.752 77.7946 12.464C78.296 12.1653 78.8613 12.016 79.4906 12.016C80.12 12.016 80.6373 12.1333 81.0426 12.368C81.448 12.6027 81.752 12.96 81.9546 13.44C82.1573 13.9093 82.2586 14.5067 82.2586 15.232V19.104C82.2586 19.4347 82.1733 19.6907 82.0026 19.872C81.832 20.0427 81.5866 20.128 81.2666 20.128C80.9466 20.128 80.696 20.0427 80.5146 19.872C80.344 19.6907 80.2586 19.4347 80.2586 19.104V15.328C80.2586 14.72 80.1413 14.2773 79.9066 14C79.6826 13.7227 79.3306 13.584 78.8506 13.584C78.264 13.584 77.7946 13.7707 77.4426 14.144C77.1013 14.5067 76.9306 14.992 76.9306 15.6V19.104C76.9306 19.7867 76.5946 20.128 75.9226 20.128ZM86.866 20.16C86.3007 20.16 85.794 20.0533 85.346 19.84C84.9087 19.616 84.562 19.3173 84.306 18.944C84.0607 18.5707 83.938 18.1493 83.938 17.68C83.938 17.104 84.0873 16.6507 84.386 16.32C84.6847 15.9787 85.17 15.7333 85.842 15.584C86.514 15.4347 87.4153 15.36 88.546 15.36H89.346V16.512H88.562C87.9007 16.512 87.3727 16.544 86.978 16.608C86.5833 16.672 86.3007 16.784 86.13 16.944C85.97 17.0933 85.89 17.3067 85.89 17.584C85.89 17.936 86.0127 18.224 86.258 18.448C86.5033 18.672 86.8447 18.784 87.282 18.784C87.634 18.784 87.9433 18.704 88.21 18.544C88.4873 18.3733 88.706 18.144 88.866 17.856C89.026 17.568 89.106 17.2373 89.106 16.864V15.024C89.106 14.4907 88.9887 14.1067 88.754 13.872C88.5193 13.6373 88.1247 13.52 87.57 13.52C87.2607 13.52 86.9247 13.5573 86.562 13.632C86.21 13.7067 85.8367 13.8347 85.442 14.016C85.2393 14.112 85.058 14.1387 84.898 14.096C84.7487 14.0533 84.6313 13.968 84.546 13.84C84.4607 13.7013 84.418 13.552 84.418 13.392C84.418 13.232 84.4607 13.0773 84.546 12.928C84.6313 12.768 84.7753 12.6507 84.978 12.576C85.4687 12.3733 85.938 12.2293 86.386 12.144C86.8447 12.0587 87.2607 12.016 87.634 12.016C88.402 12.016 89.0313 12.1333 89.522 12.368C90.0233 12.6027 90.3967 12.96 90.642 13.44C90.8873 13.9093 91.01 14.5173 91.01 15.264V19.104C91.01 19.4347 90.93 19.6907 90.77 19.872C90.61 20.0427 90.3807 20.128 90.082 20.128C89.7833 20.128 89.5487 20.0427 89.378 19.872C89.218 19.6907 89.138 19.4347 89.138 19.104V18.336H89.266C89.1913 18.7093 89.042 19.0347 88.818 19.312C88.6047 19.5787 88.3327 19.7867 88.002 19.936C87.6713 20.0853 87.2927 20.16 86.866 20.16ZM94.032 20.128C93.712 20.128 93.4667 20.0427 93.296 19.872C93.1253 19.6907 93.04 19.4347 93.04 19.104V13.056C93.04 12.7253 93.1253 12.4747 93.296 12.304C93.4667 12.1333 93.7067 12.048 94.016 12.048C94.3253 12.048 94.5653 12.1333 94.736 12.304C94.9067 12.4747 94.992 12.7253 94.992 13.056V14.144L94.816 13.744C95.0507 13.1787 95.4133 12.752 95.904 12.464C96.4053 12.1653 96.9707 12.016 97.6 12.016C98.2293 12.016 98.7467 12.1333 99.152 12.368C99.5573 12.6027 99.8613 12.96 100.064 13.44C100.267 13.9093 100.368 14.5067 100.368 15.232V19.104C100.368 19.4347 100.283 19.6907 100.112 19.872C99.9413 20.0427 99.696 20.128 99.376 20.128C99.056 20.128 98.8053 20.0427 98.624 19.872C98.4533 19.6907 98.368 19.4347 98.368 19.104V15.328C98.368 14.72 98.2507 14.2773 98.016 14C97.792 13.7227 97.44 13.584 96.96 13.584C96.3733 13.584 95.904 13.7707 95.552 14.144C95.2107 14.5067 95.04 14.992 95.04 15.6V19.104C95.04 19.7867 94.704 20.128 94.032 20.128ZM106.015 20.16C105.194 20.16 104.479 19.9947 103.871 19.664C103.263 19.3227 102.794 18.8427 102.463 18.224C102.133 17.6053 101.967 16.88 101.967 16.048C101.967 15.4187 102.058 14.8587 102.239 14.368C102.431 13.8667 102.703 13.4453 103.055 13.104C103.407 12.752 103.834 12.4853 104.335 12.304C104.837 12.112 105.397 12.016 106.015 12.016C106.367 12.016 106.746 12.064 107.151 12.16C107.567 12.256 107.957 12.416 108.319 12.64C108.49 12.7467 108.602 12.8747 108.655 13.024C108.709 13.1733 108.719 13.328 108.687 13.488C108.655 13.6373 108.586 13.7707 108.479 13.888C108.383 13.9947 108.261 14.064 108.111 14.096C107.962 14.1173 107.797 14.08 107.615 13.984C107.381 13.8453 107.141 13.744 106.895 13.68C106.65 13.6053 106.415 13.568 106.191 13.568C105.839 13.568 105.53 13.6267 105.263 13.744C104.997 13.8507 104.767 14.0107 104.575 14.224C104.394 14.4267 104.255 14.6827 104.159 14.992C104.063 15.3013 104.015 15.6587 104.015 16.064C104.015 16.8533 104.202 17.4773 104.575 17.936C104.959 18.384 105.498 18.608 106.191 18.608C106.415 18.608 106.645 18.576 106.879 18.512C107.125 18.448 107.37 18.3467 107.615 18.208C107.797 18.112 107.957 18.08 108.095 18.112C108.245 18.144 108.367 18.2187 108.463 18.336C108.559 18.4427 108.618 18.576 108.639 18.736C108.661 18.8853 108.639 19.0347 108.575 19.184C108.522 19.3333 108.415 19.456 108.255 19.552C107.903 19.7653 107.53 19.92 107.135 20.016C106.741 20.112 106.367 20.16 106.015 20.16ZM113.646 20.16C112.761 20.16 111.998 19.9947 111.358 19.664C110.718 19.3333 110.222 18.864 109.87 18.256C109.529 17.648 109.358 16.928 109.358 16.096C109.358 15.2853 109.523 14.576 109.854 13.968C110.195 13.36 110.659 12.8853 111.246 12.544C111.843 12.192 112.521 12.016 113.278 12.016C113.833 12.016 114.329 12.1067 114.766 12.288C115.214 12.4693 115.593 12.7307 115.902 13.072C116.222 13.4133 116.462 13.8293 116.622 14.32C116.793 14.8 116.878 15.344 116.878 15.952C116.878 16.144 116.809 16.2933 116.67 16.4C116.542 16.496 116.355 16.544 116.11 16.544H110.974V15.392H115.47L115.214 15.632C115.214 15.1413 115.139 14.7307 114.99 14.4C114.851 14.0693 114.643 13.8187 114.366 13.648C114.099 13.4667 113.763 13.376 113.358 13.376C112.91 13.376 112.526 13.4827 112.206 13.696C111.897 13.8987 111.657 14.192 111.486 14.576C111.326 14.9493 111.246 15.3973 111.246 15.92V16.032C111.246 16.9067 111.449 17.5627 111.854 18C112.27 18.4267 112.878 18.64 113.678 18.64C113.955 18.64 114.265 18.608 114.606 18.544C114.958 18.4693 115.289 18.3467 115.598 18.176C115.822 18.048 116.019 17.9947 116.19 18.016C116.361 18.0267 116.494 18.0853 116.59 18.192C116.697 18.2987 116.761 18.432 116.782 18.592C116.803 18.7413 116.771 18.896 116.686 19.056C116.611 19.216 116.478 19.3547 116.286 19.472C115.913 19.7067 115.481 19.8827 114.99 20C114.51 20.1067 114.062 20.16 113.646 20.16ZM119.454 20.112C119.134 20.112 118.889 20.016 118.718 19.824C118.547 19.632 118.462 19.3653 118.462 19.024V13.152C118.462 12.8 118.547 12.5333 118.718 12.352C118.889 12.16 119.134 12.064 119.454 12.064C119.774 12.064 120.019 12.16 120.19 12.352C120.371 12.5333 120.462 12.8 120.462 13.152V19.024C120.462 19.3653 120.377 19.632 120.206 19.824C120.035 20.016 119.785 20.112 119.454 20.112ZM119.454 10.576C119.081 10.576 118.787 10.4853 118.574 10.304C118.371 10.112 118.27 9.85067 118.27 9.52C118.27 9.17867 118.371 8.91733 118.574 8.736C118.787 8.55467 119.081 8.464 119.454 8.464C119.838 8.464 120.131 8.55467 120.334 8.736C120.537 8.91733 120.638 9.17867 120.638 9.52C120.638 9.85067 120.537 10.112 120.334 10.304C120.131 10.4853 119.838 10.576 119.454 10.576ZM123.564 20.128C123.233 20.128 122.977 20.0427 122.796 19.872C122.625 19.6907 122.54 19.4347 122.54 19.104V13.056C122.54 12.7253 122.625 12.4747 122.796 12.304C122.967 12.1333 123.207 12.048 123.516 12.048C123.825 12.048 124.065 12.1333 124.236 12.304C124.407 12.4747 124.492 12.7253 124.492 13.056V14.064H124.332C124.481 13.424 124.775 12.9387 125.212 12.608C125.649 12.2773 126.231 12.08 126.956 12.016C127.18 11.9947 127.356 12.0533 127.484 12.192C127.623 12.32 127.703 12.5227 127.724 12.8C127.745 13.0667 127.681 13.2853 127.532 13.456C127.393 13.616 127.18 13.712 126.892 13.744L126.54 13.776C125.889 13.84 125.399 14.0427 125.068 14.384C124.737 14.7147 124.572 15.184 124.572 15.792V19.104C124.572 19.4347 124.487 19.6907 124.316 19.872C124.145 20.0427 123.895 20.128 123.564 20.128ZM132.249 20.16C131.438 20.16 130.734 19.9947 130.137 19.664C129.539 19.3333 129.075 18.864 128.745 18.256C128.414 17.6373 128.249 16.912 128.249 16.08C128.249 15.4507 128.339 14.8907 128.521 14.4C128.713 13.8987 128.985 13.472 129.337 13.12C129.689 12.7573 130.11 12.4853 130.601 12.304C131.091 12.112 131.641 12.016 132.249 12.016C133.059 12.016 133.763 12.1813 134.361 12.512C134.958 12.8427 135.422 13.312 135.753 13.92C136.083 14.528 136.249 15.248 136.249 16.08C136.249 16.7093 136.153 17.2747 135.961 17.776C135.779 18.2773 135.513 18.7093 135.161 19.072C134.809 19.424 134.387 19.696 133.897 19.888C133.406 20.0693 132.857 20.16 132.249 20.16ZM132.249 18.64C132.643 18.64 132.99 18.544 133.289 18.352C133.587 18.16 133.817 17.8773 133.977 17.504C134.147 17.12 134.233 16.6453 134.233 16.08C134.233 15.2267 134.051 14.592 133.689 14.176C133.326 13.7493 132.846 13.536 132.249 13.536C131.854 13.536 131.507 13.632 131.209 13.824C130.91 14.0053 130.675 14.288 130.505 14.672C130.345 15.0453 130.265 15.5147 130.265 16.08C130.265 16.9227 130.446 17.5627 130.809 18C131.171 18.4267 131.651 18.64 132.249 18.64Z" fill="#212529"/>
</svg>
